<svg width="25" height="25" viewBox="0 0 25 25" fill="none" xmlns="http://www.w3.org/2000/svg">
<path d="M12.5225 0.09375C5.63264 0.09375 0.0456543 5.77495 0.0456543 12.7836C0.0456543 18.3904 3.62065 23.1472 8.57809 24.8252C9.20165 24.9427 9.43057 24.5499 9.43057 24.2147C9.43057 23.9121 9.419 22.9125 9.41363 21.8521C5.94256 22.6198 5.21012 20.3548 5.21012 20.3548C4.64256 18.888 3.82479 18.498 3.82479 18.498C2.69276 17.7104 3.91012 17.7266 3.91012 17.7266C5.16301 17.8159 5.82272 19.0343 5.82272 19.0343C6.93553 20.9743 8.74152 20.4135 9.45351 20.0892C9.56549 19.2692 9.88884 18.709 10.2457 18.3923C7.47437 18.0714 4.56115 16.9833 4.56115 12.1208C4.56115 10.7354 5.04855 9.60332 5.84669 8.71463C5.71714 8.3948 5.29008 7.10431 5.96756 5.35635C5.96756 5.35635 7.01528 5.01529 9.39958 6.65713C10.3948 6.37596 11.4622 6.23495 12.5225 6.23012C13.5828 6.23495 14.651 6.37596 15.6481 6.65713C18.0295 5.01529 19.0758 5.35635 19.0758 5.35635C19.755 7.10431 19.3277 8.3948 19.1981 8.71463C19.9981 9.60332 20.4822 10.7354 20.4822 12.1208C20.4822 16.9949 17.5634 18.0681 14.7851 18.3822C15.2326 18.776 15.6314 19.5483 15.6314 20.7323C15.6314 22.43 15.6169 23.7966 15.6169 24.2147C15.6169 24.5524 15.8415 24.9481 16.474 24.8235C21.4287 23.1436 24.9992 18.3885 24.9992 12.7836C24.9992 5.77495 19.413 0.09375 12.5225 0.09375Z" fill="#EFEFF1"/>
<path d="M4.77128 18.3137C4.7438 18.377 4.64628 18.3957 4.55744 18.3524C4.46694 18.311 4.41612 18.225 4.44545 18.1618C4.47231 18.0968 4.57004 18.079 4.66033 18.1221C4.75103 18.1637 4.80269 18.2505 4.77128 18.3137Z" fill="#EFEFF1"/>
<path d="M5.27664 18.887C5.21714 18.9431 5.10082 18.917 5.02189 18.8283C4.94028 18.7399 4.92499 18.6216 4.98532 18.5646C5.04668 18.5085 5.15949 18.5348 5.24131 18.6232C5.32292 18.7128 5.33883 18.8302 5.27664 18.887Z" fill="#EFEFF1"/>
<path d="M5.76859 19.6179C5.69214 19.6719 5.56714 19.6212 5.48987 19.5084C5.41342 19.3955 5.41342 19.2602 5.49152 19.206C5.569 19.1518 5.69214 19.2005 5.77045 19.3125C5.84669 19.427 5.84669 19.5626 5.76859 19.6179Z" fill="#EFEFF1"/>
<path d="M6.4426 20.3239C6.37422 20.4006 6.22855 20.38 6.12194 20.2754C6.01285 20.173 5.98248 20.0278 6.05108 19.9511C6.12029 19.8742 6.26678 19.8959 6.37422 19.9997C6.48248 20.1018 6.51554 20.2481 6.4426 20.3239Z" fill="#EFEFF1"/>
<path d="M7.37225 20.734C7.34208 20.8334 7.20179 20.8785 7.06047 20.8363C6.91935 20.7928 6.827 20.6764 6.85551 20.5759C6.88485 20.4759 7.02576 20.4288 7.16811 20.474C7.30902 20.5173 7.40158 20.6329 7.37225 20.734Z" fill="#EFEFF1"/>
<path d="M8.39333 20.81C8.39685 20.9147 8.27701 21.0015 8.12867 21.0031C7.97949 21.0067 7.85883 20.922 7.85718 20.8191C7.85718 20.7134 7.97433 20.6274 8.1235 20.6249C8.27185 20.6219 8.39333 20.706 8.39333 20.81Z" fill="#EFEFF1"/>
<path d="M9.34361 20.6455C9.36138 20.7476 9.25828 20.8525 9.11096 20.8802C8.96613 20.9073 8.83204 20.8443 8.81365 20.743C8.79568 20.6383 8.90063 20.5335 9.04526 20.5063C9.19278 20.4803 9.32481 20.5417 9.34361 20.6455Z" fill="#EFEFF1"/>
</svg>
