<svg width="25" height="25" viewBox="0 0 25 25" fill="none" xmlns="http://www.w3.org/2000/svg">
<path fill-rule="evenodd" clip-rule="evenodd" d="M12.5 0C5.59644 0 0 5.59644 0 12.5C0 19.4036 5.59644 25 12.5 25C19.4036 25 25 19.4036 25 12.5C25 5.59644 19.4036 0 12.5 0ZM9.7517 5.87361C10.4628 5.84125 10.69 5.83333 12.5006 5.83333H12.4985C14.3097 5.83333 14.5361 5.84125 15.2472 5.87361C15.9569 5.90611 16.4416 6.01847 16.8666 6.18334C17.3055 6.35348 17.6764 6.58126 18.0472 6.95209C18.418 7.32265 18.6458 7.6946 18.8167 8.13308C18.9806 8.55697 19.0931 9.04142 19.1264 9.75115C19.1583 10.4623 19.1667 10.6895 19.1667 12.5001C19.1667 14.3106 19.1583 14.5373 19.1264 15.2484C19.0931 15.9579 18.9806 16.4425 18.8167 16.8665C18.6458 17.3048 18.418 17.6768 18.0472 18.0473C17.6768 18.4182 17.3054 18.6465 16.8671 18.8168C16.4429 18.9817 15.9579 19.094 15.2481 19.1265C14.537 19.1589 14.3105 19.1668 12.4998 19.1668C10.6894 19.1668 10.4623 19.1589 9.75115 19.1265C9.04156 19.094 8.55697 18.9817 8.1328 18.8168C7.6946 18.6465 7.32265 18.4182 6.95223 18.0473C6.58153 17.6768 6.35375 17.3048 6.18333 16.8664C6.01861 16.4425 5.90625 15.958 5.87361 15.2483C5.84139 14.5372 5.83333 14.3106 5.83333 12.5001C5.83333 10.6895 5.84166 10.4621 5.87347 9.75101C5.90542 9.04156 6.01792 8.55697 6.1832 8.13294C6.35403 7.6946 6.58181 7.32265 6.95265 6.95209C7.32321 6.5814 7.69516 6.35362 8.13363 6.18334C8.55753 6.01847 9.04198 5.90611 9.7517 5.87361Z" fill="#EFEFF1"/>
<path fill-rule="evenodd" clip-rule="evenodd" d="M11.9026 7.03475C12.0187 7.03457 12.1436 7.03462 12.2784 7.03468L12.5006 7.03475C14.2806 7.03475 14.4916 7.04114 15.1945 7.07308C15.8445 7.1028 16.1973 7.21142 16.4323 7.30267C16.7434 7.4235 16.9652 7.56795 17.1984 7.80128C17.4318 8.03462 17.5762 8.25684 17.6973 8.56796C17.7886 8.80268 17.8973 9.15546 17.9269 9.80547C17.9589 10.5083 17.9658 10.7194 17.9658 12.4986C17.9658 14.2777 17.9589 14.4889 17.9269 15.1916C17.8972 15.8416 17.7886 16.1944 17.6973 16.4292C17.5765 16.7403 17.4318 16.9618 17.1984 17.195C16.9651 17.4283 16.7436 17.5728 16.4323 17.6936C16.1976 17.7853 15.8445 17.8936 15.1945 17.9233C14.4917 17.9553 14.2806 17.9622 12.5006 17.9622C10.7205 17.9622 10.5095 17.9553 9.8067 17.9233C9.15669 17.8933 8.80391 17.7847 8.56877 17.6935C8.25765 17.5726 8.03543 17.4282 7.80209 17.1949C7.56876 16.9615 7.42431 16.7399 7.3032 16.4286C7.21195 16.1939 7.1032 15.8411 7.07361 15.1911C7.04167 14.4883 7.03528 14.2772 7.03528 12.4969C7.03528 10.7166 7.04167 10.5066 7.07361 9.8038C7.10333 9.1538 7.21195 8.80102 7.3032 8.56601C7.42403 8.2549 7.56876 8.03267 7.80209 7.79934C8.03543 7.566 8.25765 7.42156 8.56877 7.30045C8.80377 7.20878 9.15669 7.10044 9.8067 7.07058C10.4217 7.0428 10.66 7.03447 11.9026 7.03308V7.03475ZM16.0593 8.1417C15.6176 8.1417 15.2592 8.49962 15.2592 8.94143C15.2592 9.3831 15.6176 9.74144 16.0593 9.74144C16.5009 9.74144 16.8593 9.3831 16.8593 8.94143C16.8593 8.49976 16.5009 8.14142 16.0593 8.14142V8.1417ZM9.07697 12.5001C9.07697 10.6094 10.6098 9.07651 12.5005 9.07643C14.3912 9.07643 15.9237 10.6094 15.9237 12.5001C15.9237 14.3908 14.3913 15.923 12.5006 15.923C10.6099 15.923 9.07697 14.3908 9.07697 12.5001Z" fill="#EFEFF1"/>
<path d="M12.5006 10.2778C13.7278 10.2778 14.7228 11.2727 14.7228 12.5001C14.7228 13.7273 13.7278 14.7223 12.5006 14.7223C11.2732 14.7223 10.2783 13.7273 10.2783 12.5001C10.2783 11.2727 11.2732 10.2778 12.5006 10.2778Z" fill="#EFEFF1"/>
</svg>
